<?xml version="1.0" encoding="utf-8"?>
<!-- Svg Vector Icons : http://www.onlinewebfonts.com/icon -->
<!DOCTYPE svg PUBLIC "-//W3C//DTD SVG 1.1//EN" "http://www.w3.org/Graphics/SVG/1.1/DTD/svg11.dtd">
<svg version="1.1" xmlns="http://www.w3.org/2000/svg" xmlns:xlink="http://www.w3.org/1999/xlink" x="0px" y="0px" viewBox="0 0 1000 1000" enable-background="new 0 0 1000 1000" xml:space="preserve">
<metadata> Svg Vector Icons : http://www.onlinewebfonts.com/icon </metadata>
<g><g transform="translate(0.000000,511.000000) scale(0.100000,-0.100000)"><path d="M6101.2,4960.7c-55.8-26.9-117.3-73.1-138.5-101.9c-34.6-50-50-55.8-198.1-65.4c-567.4-44.2-930.9-319.3-984.7-744.3c-30.8-248.1,94.2-852,301.9-1457.8c148.1-436.6,300-790.5,534.7-1248.2c178.9-350,186.6-371.2,152-394.3c-34.6-23.1-30.8-34.6,80.8-207.7c327-505.8,646.2-832.8,969.3-992.4l146.2-73.1l-7.7-1432.8c-5.8-1269.4-9.6-1446.3-38.5-1540.5c-159.6-532.8-625.1-890.5-1157.8-892.4c-215.4,0-340.4,28.8-546.2,126.9c-325,153.9-578.9,488.5-646.2,848.2c-19.2,105.8-28.8,284.6-28.8,586.6c0,350.1-7.7,471.2-36.5,609.7c-148.1,713.5-721.2,1275.1-1444.4,1413.6c-155.8,30.8-527,25-682.8-7.7c-432.7-92.3-788.5-311.6-1053.9-646.2c-63.5-78.9-125-150-136.6-155.8c-11.5-7.7-67.3-17.3-125-23.1c-57.7-7.7-165.4-42.3-240.4-76.9c-344.3-165.4-550.1-488.5-550.1-867.4c0-278.9,88.5-488.5,286.6-684.7c148.1-146.2,288.5-221.2,500-263.5c392.3-80.8,825.1,127,1015.5,486.6c201.9,380.8,138.5,828.9-159.6,1132.8l-101.9,103.8l119.2,111.6c582.8,542.4,1557.8,350,1894.4-375c94.2-207.7,103.9-271.2,119.2-859.7c15.4-628.9,32.7-732.8,173.1-1025.1c98.1-207.7,171.2-309.6,334.6-482.8c240.4-248.1,519.3-413.5,857.8-505.8c234.6-61.5,648.1-61.5,884.7,1.9C6832.1-4571,7324.4-4082.5,7503.3-3442c44.2,151.9,44.2,167.3,50,1638.6l7.7,1484.7l107.7,48.1c315.4,146.2,686.6,525.1,1005.9,1027c96.2,150,100,161.6,69.2,194.3c-30.8,34.6-28.8,46.2,65.4,213.5c325,575.1,700.1,1536.7,834.7,2134.8c73.1,334.6,92.3,484.7,84.6,690.5c-5.8,163.5-13.5,200-69.2,313.5c-76.9,157.7-194.3,265.4-380.8,355.8c-144.3,69.2-438.5,140.4-582.8,140.4c-73.1,0-96.2,11.5-175,84.6c-146.2,138.5-307.7,161.6-482.7,75c-150-76.9-215.4-180.8-223.1-348.1c-7.7-167.3,44.2-275,173.1-363.5c177-119.2,375-101.9,528.9,46.2c75,69.2,100,82.7,165.4,82.7c126.9,0,332.7-51.9,440.4-109.6c146.2-78.8,186.6-150,186.6-330.8c0-461.6-298.1-1415.5-692.4-2223.3c-221.2-452-259.7-513.5-315.4-498.1c-38.5,9.6-55.8-7.7-126.9-121.2c-319.3-509.7-686.6-852-913.6-852c-123.1,0-290.4,94.2-452,253.9c-146.2,142.3-363.5,423.1-480.8,617.4c-59.6,98.1-71.2,109.6-117.3,100c-48.1-11.5-55.8,1.9-232.7,350c-223.1,436.6-369.3,777-507.7,1188.6c-184.6,553.9-296.2,1080.9-267.4,1277c26.9,180.8,242.3,311.6,569.3,340.4l132.7,13.5l94.2-88.5c184.6-173.1,405.8-171.2,580.8,3.8c209.6,207.7,159.6,534.7-103.8,665.4C6347.4,5026.1,6232,5026.1,6101.2,4960.7z M1527.7-1776.5c242.3-119.2,377-334.6,377-607.7c0-190.4-51.9-325.1-175-461.6c-286.6-311.6-800.1-288.5-1048.2,46.2c-75,101.9-142.3,296.2-142.3,413.5c0,280.8,211.6,569.3,482.7,657.8C1164.2-1682.2,1377.7-1703.4,1527.7-1776.5z"/><path d="M1075.8-1903.4C962.3-1940,823.8-2063,770-2174.6c-53.8-107.7-57.7-290.4-11.5-402c40.4-94.2,150-211.6,244.3-259.6c394.3-203.9,844.3,194.2,700.1,617.4C1618.1-1970.7,1323.8-1824.6,1075.8-1903.4z"/></g></g>
</svg>