<?xml version="1.0" encoding="utf-8"?>
<!-- Generator: Adobe Illustrator 26.0.2, SVG Export Plug-In . SVG Version: 6.00 Build 0)  -->
<svg version="1.1" id="Layer_1" xmlns="http://www.w3.org/2000/svg" xmlns:xlink="http://www.w3.org/1999/xlink" x="0px" y="0px"
	 viewBox="0 0 207 35.3" style="enable-background:new 0 0 207 35.3;" xml:space="preserve">
<style type="text/css">
	.st0{fill:#69B769;}
</style>
<g>
	<path class="st0" d="M35.3,16c-0.4-4.7-2.7-8.9-6.3-12c-3.6-3-8.2-4.4-12.9-4c-4.7,0.4-8.9,2.7-12,6.3c-3,3.6-4.4,8.2-4,12.9
		c0.2,2.4,0.9,4.7,2.1,6.9c1.2,2.1,2.8,4,4.7,5.5c1.7,1.3,3.5,2.2,5.2,2.4c1.4,0.2,2.7,0.1,3.8-0.5c1.1-0.6,2-1.5,2.5-2.8
		c0.4-0.9,0.6-1.9,0.6-3.1l0-0.6h0v0l0-0.3l0,0l0-0.3c0.5,0.1,1,0.2,1.5,0.2c2.2,0,4.3-1,5.9-2.8c1.2-1.3,1.9-3,2.2-4.8
		c0.4-2.3-0.1-4.7-1.2-6.9l0,0c-0.2-0.4-0.6-0.5-1-0.4c-1.1,0.3-2.2,0.7-3.2,1.3l-0.1,0c-0.1-0.3-0.2-0.5-0.3-0.8
		C22.1,10,20.5,8.3,18.6,7c-0.1-0.1-0.3-0.1-0.5-0.1c-0.2,0-0.3,0-0.5,0.1c-2,1.3-3.5,3.1-4.4,5.2c-0.1,0.2-0.2,0.5-0.3,0.7l0,0
		c-0.3-0.2-0.6-0.3-0.9-0.5c-0.8-0.4-1.5-0.7-2.3-0.9c-0.4-0.1-0.8,0.1-1,0.5c-1.2,2.3-1.6,4.7-1.2,6.9c0.3,1.8,1.1,3.5,2.2,4.8
		c1.2,1.3,2.6,2.2,4.2,2.6c0.6,0.1,1.1,0.2,1.7,0.2c0.5,0,1-0.1,1.5-0.2l0,1.7l0,0c-0.1,0.8-0.2,1.4-0.4,2c-0.4,0.9-0.9,1.6-1.7,1.9
		c-0.7,0.4-1.7,0.5-2.7,0.3c-1.4-0.2-2.9-1-4.4-2.1c-1.8-1.3-3.2-3-4.2-4.9c-1.1-1.9-1.7-4-1.9-6.2c-0.4-4.2,0.9-8.4,3.6-11.6
		C8.1,4.2,12,2.2,16.2,1.8c4.3-0.4,8.4,0.9,11.6,3.6c3.3,2.7,5.3,6.5,5.7,10.8c0.2,2.7-0.2,5.4-1.2,7.8c-1.1,2.5-2.7,4.6-4.9,6.3
		c-1.2,0.9-2.5,1.7-3.9,2.2c-1.4,0.5-2.9,0.9-4.4,1c-0.5,0-0.8,0.5-0.8,1c0,0.5,0.4,0.8,0.9,0.8c0,0,0.1,0,0.1,0h0
		c1.7-0.2,3.3-0.5,4.8-1.2c1.6-0.6,3-1.4,4.3-2.5c2.3-1.8,4.2-4.2,5.4-7C35.1,22,35.5,19,35.3,16z M23.9,17.8c0-0.4,0-0.8,0-1.2
		c0-0.7-0.1-1.3-0.2-2l0.1,0l0.2-0.1c0.7-0.4,1.5-0.8,2.2-1c0.8,1.7,1,3.5,0.7,5.2c-0.2,1.5-0.9,2.9-1.8,3.9c-1.3,1.5-3,2.3-4.7,2.2
		c0.7-0.5,1.3-1.2,1.7-1.9C23.1,21.4,23.7,19.7,23.9,17.8z M22.1,17.6c-0.1,1.6-0.6,3.1-1.4,4.3c-0.5,0.7-1.1,1.3-1.7,1.8l0-2.9
		c0.1-0.6,0.3-1.2,0.6-1.9c0.4-0.8,1.1-1.7,1.9-2.5c0.2-0.2,0.4-0.4,0.6-0.6C22.2,16.4,22.2,17,22.1,17.6z M21.8,12.5L21.8,12.5
		L21.8,12.5L21.8,12.5z M14.5,13.8l0.1-0.2c0.1-0.3,0.2-0.5,0.3-0.8c0.7-1.6,1.8-3,3.2-4.1c1.4,1,2.4,2.3,3.1,3.8l0.1,0.2l0,0.1
		l0.1,0.1c0.1,0.3,0.2,0.6,0.3,0.9l-0.1,0.1l-0.2,0.2c-0.4,0.3-0.8,0.7-1.2,1.1c-0.5,0.6-1.4,1.6-2.1,2.8c-0.7-1.3-1.6-2.3-2.1-2.8
		C15.5,14.7,15,14.3,14.5,13.8L14.5,13.8z M14.4,24.7c-1.2-0.3-2.4-1-3.3-2.1c-0.9-1.1-1.6-2.5-1.8-3.9C9,17,9.3,15.2,10,13.4
		c0.6,0.2,1.2,0.5,1.9,0.8l0.1,0.1c0.2,0.1,0.3,0.2,0.5,0.3c0,0,0,0.1,0,0.1l0,0.3c-0.1,0.9-0.2,1.8-0.1,2.8
		c0.2,1.9,0.8,3.6,1.7,5.1c0.5,0.7,1.1,1.4,1.7,1.9C15.3,24.8,14.8,24.8,14.4,24.7z M15.5,21.9c-0.8-1.2-1.3-2.7-1.4-4.3
		c0-0.6,0-1.2,0-1.8c1,0.9,1.9,2,2.5,3.1c0.3,0.7,0.6,1.3,0.6,1.8l0,3C16.6,23.3,16,22.7,15.5,21.9z"/>
	<g>
		<path d="M52.8,12.8c1,0,1.9,0.3,2.7,0.8c0.8,0.5,1.4,1.2,1.9,2.1c0.5,0.9,0.7,1.9,0.7,3.1c0,1.2-0.2,2.2-0.7,3.1
			c-0.5,0.9-1.1,1.6-1.9,2.1c-0.8,0.5-1.7,0.8-2.7,0.8c-0.6,0-1.1-0.1-1.6-0.3c-0.5-0.2-0.9-0.4-1.3-0.7c-0.4-0.3-0.7-0.6-0.9-0.9
			c-0.2-0.3-0.4-0.6-0.5-0.9l0.6-0.3v6.1c0,0.3-0.1,0.6-0.3,0.8c-0.2,0.2-0.5,0.3-0.8,0.3c-0.3,0-0.6-0.1-0.8-0.3
			c-0.2-0.2-0.3-0.5-0.3-0.8V14.1c0-0.3,0.1-0.6,0.3-0.8c0.2-0.2,0.5-0.3,0.8-0.3c0.3,0,0.6,0.1,0.8,0.3c0.2,0.2,0.3,0.5,0.3,0.8
			v1.5l-0.4-0.2c0-0.3,0.2-0.6,0.4-0.9c0.2-0.3,0.5-0.6,0.9-0.8c0.4-0.3,0.8-0.5,1.2-0.6C51.8,12.9,52.3,12.8,52.8,12.8z M52.6,14.8
			c-0.7,0-1.3,0.2-1.8,0.5c-0.5,0.3-0.9,0.8-1.2,1.4c-0.3,0.6-0.4,1.3-0.4,2c0,0.7,0.1,1.4,0.4,2c0.3,0.6,0.7,1.1,1.2,1.4
			c0.5,0.3,1.1,0.5,1.8,0.5c0.7,0,1.3-0.2,1.8-0.5c0.5-0.3,0.9-0.8,1.2-1.4c0.3-0.6,0.5-1.3,0.5-2s-0.2-1.4-0.5-2
			c-0.3-0.6-0.7-1.1-1.2-1.4C53.9,15,53.3,14.8,52.6,14.8z"/>
		<path d="M66.2,12.8c1,0,1.8,0.2,2.4,0.6c0.6,0.4,0.9,1,1.2,1.7c0.2,0.7,0.3,1.5,0.3,2.4v5.8c0,0.3-0.1,0.6-0.3,0.8
			s-0.5,0.3-0.8,0.3c-0.3,0-0.6-0.1-0.8-0.3c-0.2-0.2-0.3-0.5-0.3-0.8v-5.8c0-0.5-0.1-1-0.2-1.4c-0.1-0.4-0.4-0.8-0.7-1
			c-0.3-0.2-0.8-0.4-1.4-0.4c-0.6,0-1.1,0.1-1.5,0.4c-0.4,0.2-0.8,0.6-1,1c-0.2,0.4-0.4,0.9-0.4,1.4v5.8c0,0.3-0.1,0.6-0.3,0.8
			c-0.2,0.2-0.5,0.3-0.8,0.3c-0.3,0-0.6-0.1-0.8-0.3c-0.2-0.2-0.3-0.5-0.3-0.8v-14c0-0.3,0.1-0.6,0.3-0.8c0.2-0.2,0.5-0.3,0.8-0.3
			c0.3,0,0.6,0.1,0.8,0.3c0.2,0.2,0.3,0.5,0.3,0.8v6l-0.4,0.2c0.1-0.3,0.3-0.7,0.5-1c0.2-0.3,0.5-0.6,0.9-0.9
			c0.4-0.3,0.8-0.5,1.2-0.7C65.3,12.9,65.7,12.8,66.2,12.8z"/>
		<path d="M81.4,12.9c0.3,0,0.6,0.1,0.8,0.3c0.2,0.2,0.3,0.5,0.3,0.8v9.5c0,1.3-0.2,2.3-0.7,3.1s-1.2,1.4-2,1.8S78,28.9,77,28.9
			c-0.5,0-1.1,0-1.6-0.1c-0.5-0.1-1-0.2-1.3-0.4c-0.4-0.2-0.6-0.4-0.7-0.6c-0.1-0.2-0.2-0.5-0.1-0.8c0.1-0.4,0.3-0.6,0.5-0.7
			c0.2-0.1,0.5-0.1,0.8,0c0.2,0.1,0.6,0.2,1,0.4c0.4,0.2,0.9,0.2,1.4,0.2c0.7,0,1.3-0.1,1.8-0.4c0.5-0.2,0.9-0.6,1.1-1.1
			c0.3-0.5,0.4-1.1,0.4-1.9V22l0.4,0.5c-0.2,0.5-0.5,0.9-0.9,1.2c-0.4,0.3-0.8,0.6-1.4,0.7c-0.5,0.2-1.1,0.3-1.7,0.3
			c-0.8,0-1.5-0.2-2.1-0.5c-0.6-0.4-1-0.9-1.3-1.5s-0.5-1.4-0.5-2.2V14c0-0.3,0.1-0.6,0.3-0.8c0.2-0.2,0.5-0.3,0.8-0.3
			c0.3,0,0.6,0.1,0.8,0.3c0.2,0.2,0.3,0.5,0.3,0.8V20c0,1,0.2,1.7,0.6,2.1c0.4,0.4,1.1,0.7,1.9,0.7c0.6,0,1-0.1,1.5-0.4
			c0.4-0.2,0.7-0.6,1-1c0.2-0.4,0.4-0.9,0.4-1.5V14c0-0.3,0.1-0.6,0.3-0.8S81.1,12.9,81.4,12.9z"/>
		<path d="M85.1,13.1h5.2c0.3,0,0.5,0.1,0.7,0.3c0.2,0.2,0.3,0.4,0.3,0.7c0,0.3-0.1,0.5-0.3,0.7c-0.2,0.2-0.4,0.3-0.7,0.3h-5.2
			c-0.3,0-0.5-0.1-0.7-0.3c-0.2-0.2-0.3-0.4-0.3-0.7c0-0.3,0.1-0.5,0.3-0.7C84.6,13.2,84.9,13.1,85.1,13.1z M87.5,10.2
			c0.3,0,0.6,0.1,0.8,0.3c0.2,0.2,0.3,0.5,0.3,0.8v10.2c0,0.3,0,0.5,0.1,0.6c0.1,0.2,0.2,0.3,0.4,0.3s0.3,0.1,0.5,0.1
			c0.2,0,0.3,0,0.4-0.1s0.3-0.1,0.5-0.1c0.2,0,0.3,0.1,0.5,0.2c0.1,0.2,0.2,0.4,0.2,0.7c0,0.4-0.2,0.6-0.6,0.9
			c-0.4,0.2-0.8,0.3-1.2,0.3c-0.2,0-0.5,0-0.9-0.1c-0.3,0-0.7-0.2-1-0.3c-0.3-0.2-0.6-0.5-0.8-0.8c-0.2-0.4-0.3-0.9-0.3-1.6V11.4
			c0-0.3,0.1-0.6,0.3-0.8C86.9,10.4,87.1,10.2,87.5,10.2z"/>
		<path d="M104.5,18.8c0,1.2-0.3,2.2-0.8,3.1c-0.5,0.9-1.2,1.6-2.1,2.1s-1.9,0.8-3,0.8c-1.1,0-2.1-0.3-3-0.8s-1.6-1.2-2.1-2.1
			c-0.5-0.9-0.8-1.9-0.8-3.1c0-1.2,0.3-2.2,0.8-3.1c0.5-0.9,1.2-1.6,2.1-2.1c0.9-0.5,1.9-0.8,3-0.8c1.1,0,2.1,0.3,3,0.8
			c0.9,0.5,1.6,1.2,2.1,2.1C104.2,16.5,104.5,17.6,104.5,18.8z M102.3,18.8c0-0.8-0.2-1.5-0.5-2.1c-0.3-0.6-0.8-1.1-1.3-1.4
			c-0.5-0.3-1.2-0.5-1.8-0.5s-1.3,0.2-1.8,0.5c-0.6,0.3-1,0.8-1.3,1.4C95.2,17.3,95,18,95,18.8c0,0.8,0.2,1.5,0.5,2.1
			s0.8,1.1,1.3,1.4c0.6,0.3,1.2,0.5,1.8,0.5s1.3-0.2,1.8-0.5c0.6-0.3,1-0.8,1.3-1.4S102.3,19.5,102.3,18.8z"/>
		<path d="M112.5,12.8c1.1,0,1.9,0.3,2.5,0.8c0.6,0.5,1,1.3,1.2,2.2l-0.4-0.1l0.2-0.4c0.2-0.4,0.5-0.8,0.9-1.2s0.9-0.7,1.4-1
			c0.5-0.3,1.1-0.4,1.7-0.4c1,0,1.8,0.2,2.4,0.6c0.6,0.4,0.9,1,1.2,1.7c0.2,0.7,0.3,1.5,0.3,2.4v5.8c0,0.3-0.1,0.6-0.3,0.8
			c-0.2,0.2-0.5,0.3-0.8,0.3c-0.3,0-0.6-0.1-0.8-0.3c-0.2-0.2-0.3-0.5-0.3-0.8v-5.8c0-0.5-0.1-1-0.2-1.4c-0.1-0.4-0.4-0.8-0.7-1
			c-0.3-0.3-0.8-0.4-1.4-0.4c-0.6,0-1.1,0.1-1.5,0.4c-0.4,0.3-0.8,0.6-1,1c-0.2,0.4-0.4,0.9-0.4,1.4v5.8c0,0.3-0.1,0.6-0.3,0.8
			c-0.2,0.2-0.5,0.3-0.8,0.3c-0.3,0-0.6-0.1-0.8-0.3c-0.2-0.2-0.3-0.5-0.3-0.8v-5.8c0-0.5-0.1-1-0.2-1.4c-0.1-0.4-0.4-0.8-0.7-1
			c-0.3-0.2-0.8-0.4-1.4-0.4c-0.6,0-1.1,0.1-1.5,0.4c-0.4,0.2-0.8,0.6-1,1c-0.2,0.4-0.4,0.9-0.4,1.4v5.8c0,0.3-0.1,0.6-0.3,0.8
			c-0.2,0.2-0.5,0.3-0.8,0.3c-0.3,0-0.6-0.1-0.8-0.3c-0.2-0.2-0.3-0.5-0.3-0.8v-9.3c0-0.3,0.1-0.6,0.3-0.8c0.2-0.2,0.5-0.3,0.8-0.3
			c0.3,0,0.6,0.1,0.8,0.3c0.2,0.2,0.3,0.5,0.3,0.8v1.3l-0.4,0.2c0.1-0.3,0.3-0.7,0.5-1c0.2-0.3,0.5-0.6,0.9-0.9
			c0.4-0.3,0.8-0.5,1.2-0.7C111.5,12.9,112,12.8,112.5,12.8z"/>
		<path d="M132.1,24.8c-1.2,0-2.3-0.3-3.2-0.8c-0.9-0.5-1.6-1.2-2.1-2.1c-0.5-0.9-0.7-1.9-0.7-3c0-1.3,0.3-2.4,0.8-3.3
			c0.5-0.9,1.2-1.6,2-2.1c0.8-0.5,1.7-0.7,2.7-0.7c0.7,0,1.4,0.1,2,0.4c0.6,0.3,1.2,0.7,1.7,1.2c0.5,0.5,0.9,1.1,1.2,1.8
			c0.3,0.7,0.4,1.4,0.5,2.2c0,0.3-0.1,0.5-0.4,0.7c-0.2,0.2-0.5,0.3-0.8,0.3h-8.6l-0.5-1.9h8.3l-0.4,0.4v-0.5c0-0.5-0.2-1-0.5-1.4
			c-0.3-0.4-0.7-0.7-1.1-0.9c-0.5-0.2-0.9-0.3-1.4-0.3c-0.4,0-0.9,0.1-1.3,0.2c-0.4,0.1-0.8,0.4-1.1,0.7c-0.3,0.3-0.6,0.7-0.7,1.2
			c-0.2,0.5-0.3,1.1-0.3,1.9c0,0.8,0.2,1.5,0.5,2.1s0.8,1.1,1.4,1.4c0.6,0.3,1.2,0.5,1.9,0.5c0.5,0,1-0.1,1.3-0.2
			c0.4-0.1,0.6-0.2,0.9-0.4c0.2-0.2,0.4-0.3,0.6-0.5c0.2-0.1,0.4-0.2,0.7-0.2c0.3,0,0.5,0.1,0.7,0.3c0.2,0.2,0.3,0.4,0.3,0.6
			c0,0.3-0.2,0.6-0.5,0.9c-0.4,0.4-0.9,0.7-1.6,1C133.6,24.6,132.8,24.8,132.1,24.8z"/>
		<path d="M148.7,8.3c0.3,0,0.6,0.1,0.8,0.3c0.2,0.2,0.3,0.5,0.3,0.8v14c0,0.3-0.1,0.6-0.3,0.8c-0.2,0.2-0.5,0.3-0.8,0.3
			c-0.3,0-0.6-0.1-0.8-0.3c-0.2-0.2-0.3-0.5-0.3-0.8v-1.6l0.5,0c0,0.3-0.1,0.6-0.3,0.9c-0.2,0.3-0.5,0.6-0.9,1s-0.8,0.6-1.3,0.8
			c-0.5,0.2-1,0.3-1.6,0.3c-1,0-1.9-0.3-2.7-0.8c-0.8-0.5-1.4-1.2-1.9-2.1c-0.5-0.9-0.7-1.9-0.7-3.1c0-1.2,0.2-2.2,0.7-3.1
			c0.5-0.9,1.1-1.6,1.9-2.1c0.8-0.5,1.7-0.8,2.7-0.8c0.6,0,1.2,0.1,1.7,0.3c0.5,0.2,1,0.5,1.4,0.8s0.7,0.7,0.9,1
			c0.2,0.4,0.3,0.7,0.3,1l-0.7,0.1V9.4c0-0.3,0.1-0.6,0.3-0.8C148.1,8.4,148.4,8.3,148.7,8.3z M144.2,22.7c0.7,0,1.3-0.2,1.8-0.5
			c0.5-0.4,0.9-0.8,1.2-1.4c0.3-0.6,0.4-1.3,0.4-2c0-0.8-0.1-1.4-0.4-2c-0.3-0.6-0.7-1.1-1.2-1.4c-0.5-0.4-1.1-0.5-1.8-0.5
			c-0.7,0-1.3,0.2-1.8,0.5c-0.5,0.4-0.9,0.8-1.2,1.4c-0.3,0.6-0.5,1.3-0.5,2c0,0.8,0.1,1.4,0.5,2c0.3,0.6,0.7,1.1,1.2,1.4
			C142.9,22.6,143.5,22.7,144.2,22.7z"/>
		<path d="M158.6,12.7c1,0,1.8,0.2,2.4,0.6c0.6,0.4,1,1,1.2,1.7c0.2,0.7,0.3,1.5,0.3,2.4v5.9c0,0.3-0.1,0.6-0.3,0.8
			c-0.2,0.2-0.5,0.3-0.8,0.3c-0.3,0-0.6-0.1-0.8-0.3s-0.3-0.5-0.3-0.8v-5.9c0-0.5-0.1-1-0.2-1.4c-0.1-0.4-0.4-0.8-0.8-1
			c-0.4-0.3-0.9-0.4-1.5-0.4c-0.6,0-1.1,0.1-1.6,0.4c-0.5,0.3-0.8,0.6-1.1,1c-0.3,0.4-0.4,0.9-0.4,1.4v5.9c0,0.3-0.1,0.6-0.3,0.8
			c-0.2,0.2-0.5,0.3-0.8,0.3c-0.3,0-0.6-0.1-0.8-0.3c-0.2-0.2-0.3-0.5-0.3-0.8v-9.3c0-0.3,0.1-0.6,0.3-0.8c0.2-0.2,0.5-0.3,0.8-0.3
			c0.3,0,0.6,0.1,0.8,0.3c0.2,0.2,0.3,0.5,0.3,0.8v1.2l-0.4,0.2c0.1-0.3,0.3-0.6,0.5-1s0.6-0.6,0.9-0.9c0.4-0.3,0.8-0.5,1.2-0.7
			C157.6,12.8,158.1,12.7,158.6,12.7z"/>
		<path d="M170.7,24.8c-1.2,0-2.3-0.3-3.2-0.8c-0.9-0.5-1.6-1.2-2.1-2.1c-0.5-0.9-0.7-1.9-0.7-3c0-1.3,0.3-2.4,0.8-3.3
			c0.5-0.9,1.2-1.6,2-2.1c0.8-0.5,1.7-0.7,2.7-0.7c0.7,0,1.4,0.1,2,0.4c0.6,0.3,1.2,0.7,1.7,1.2c0.5,0.5,0.9,1.1,1.2,1.8
			c0.3,0.7,0.4,1.4,0.5,2.2c0,0.3-0.1,0.5-0.4,0.7c-0.2,0.2-0.5,0.3-0.8,0.3H166l-0.5-1.9h8.3l-0.4,0.4v-0.5c0-0.5-0.2-1-0.5-1.4
			c-0.3-0.4-0.7-0.7-1.1-0.9c-0.5-0.2-0.9-0.3-1.4-0.3c-0.4,0-0.9,0.1-1.3,0.2c-0.4,0.1-0.8,0.4-1.1,0.7c-0.3,0.3-0.6,0.7-0.7,1.2
			c-0.2,0.5-0.3,1.1-0.3,1.9c0,0.8,0.2,1.5,0.5,2.1s0.8,1.1,1.4,1.4c0.6,0.3,1.2,0.5,1.9,0.5c0.5,0,1-0.1,1.3-0.2
			c0.4-0.1,0.6-0.2,0.9-0.4c0.2-0.2,0.4-0.3,0.6-0.5c0.2-0.1,0.4-0.2,0.7-0.2c0.3,0,0.5,0.1,0.7,0.3c0.2,0.2,0.3,0.4,0.3,0.6
			c0,0.3-0.2,0.6-0.5,0.9c-0.4,0.4-0.9,0.7-1.6,1C172.2,24.6,171.5,24.8,170.7,24.8z"/>
		<path d="M183.7,12.8c1,0,1.9,0.3,2.7,0.8c0.8,0.5,1.4,1.2,1.9,2.1c0.5,0.9,0.7,1.9,0.7,3.1c0,1.2-0.2,2.2-0.7,3.1
			c-0.5,0.9-1.1,1.6-1.9,2.1c-0.8,0.5-1.7,0.8-2.7,0.8c-0.6,0-1.1-0.1-1.6-0.3c-0.5-0.2-0.9-0.4-1.3-0.7c-0.4-0.3-0.7-0.6-0.9-0.9
			c-0.2-0.3-0.4-0.6-0.5-0.9l0.6-0.3v6.1c0,0.3-0.1,0.6-0.3,0.8c-0.2,0.2-0.5,0.3-0.8,0.3c-0.3,0-0.6-0.1-0.8-0.3
			c-0.2-0.2-0.3-0.5-0.3-0.8V14.1c0-0.3,0.1-0.6,0.3-0.8c0.2-0.2,0.5-0.3,0.8-0.3c0.3,0,0.6,0.1,0.8,0.3c0.2,0.2,0.3,0.5,0.3,0.8
			v1.5l-0.4-0.2c0-0.3,0.2-0.6,0.4-0.9c0.2-0.3,0.5-0.6,0.9-0.8c0.4-0.3,0.8-0.5,1.2-0.6S183.2,12.8,183.7,12.8z M183.5,14.8
			c-0.7,0-1.3,0.2-1.8,0.5c-0.5,0.3-0.9,0.8-1.2,1.4c-0.3,0.6-0.4,1.3-0.4,2c0,0.7,0.1,1.4,0.4,2c0.3,0.6,0.7,1.1,1.2,1.4
			s1.1,0.5,1.8,0.5c0.7,0,1.3-0.2,1.8-0.5s0.9-0.8,1.2-1.4c0.3-0.6,0.5-1.3,0.5-2s-0.2-1.4-0.5-2c-0.3-0.6-0.7-1.1-1.2-1.4
			C184.8,15,184.2,14.8,183.5,14.8z"/>
		<path d="M200.8,12.8c0.3,0,0.6,0.1,0.8,0.3c0.2,0.2,0.3,0.5,0.3,0.8v9.5c0,0.3-0.1,0.6-0.3,0.8c-0.2,0.2-0.5,0.3-0.8,0.3
			c-0.3,0-0.6-0.1-0.8-0.3c-0.2-0.2-0.3-0.5-0.3-0.8v-1.6l0.5,0.1c0,0.3-0.1,0.6-0.3,0.9c-0.2,0.3-0.5,0.6-0.9,0.9
			c-0.4,0.3-0.8,0.6-1.3,0.7c-0.5,0.2-1,0.3-1.6,0.3c-1,0-1.9-0.3-2.7-0.8c-0.8-0.5-1.4-1.2-1.9-2.1c-0.5-0.9-0.7-1.9-0.7-3.1
			c0-1.2,0.2-2.2,0.7-3.1c0.5-0.9,1.1-1.6,1.9-2.1c0.8-0.5,1.7-0.8,2.7-0.8c0.6,0,1.2,0.1,1.7,0.3s1,0.5,1.4,0.8
			c0.4,0.3,0.7,0.7,0.9,1c0.2,0.4,0.3,0.7,0.3,1l-0.7,0.1v-2c0-0.3,0.1-0.6,0.3-0.8C200.2,12.9,200.4,12.8,200.8,12.8z M196.3,22.7
			c0.7,0,1.3-0.2,1.8-0.5c0.5-0.4,0.9-0.8,1.2-1.4c0.3-0.6,0.4-1.3,0.4-2c0-0.8-0.1-1.4-0.4-2c-0.3-0.6-0.7-1.1-1.2-1.4
			c-0.5-0.4-1.1-0.5-1.8-0.5c-0.7,0-1.3,0.2-1.8,0.5s-0.9,0.8-1.2,1.4c-0.3,0.6-0.5,1.3-0.5,2c0,0.7,0.2,1.4,0.5,2
			c0.3,0.6,0.7,1.1,1.2,1.4S195.6,22.7,196.3,22.7z"/>
		<path d="M207,23.4c0,0.3-0.1,0.6-0.3,0.8s-0.5,0.3-0.8,0.3c-0.3,0-0.6-0.1-0.8-0.3c-0.2-0.2-0.3-0.5-0.3-0.8v-14
			c0-0.3,0.1-0.6,0.3-0.8c0.2-0.2,0.5-0.3,0.8-0.3c0.3,0,0.6,0.1,0.8,0.3c0.2,0.2,0.3,0.5,0.3,0.8V23.4z"/>
	</g>
</g>
</svg>
